<?xml version="1.0" encoding="UTF-8" standalone="no"?>
<!-- Generate more at customizr.net -->

<svg
   xmlns:dc="http://purl.org/dc/elements/1.1/"
   xmlns:cc="http://creativecommons.org/ns#"
   xmlns:rdf="http://www.w3.org/1999/02/22-rdf-syntax-ns#"
   xmlns:svg="http://www.w3.org/2000/svg"
   xmlns="http://www.w3.org/2000/svg"
   xmlns:sodipodi="http://sodipodi.sourceforge.net/DTD/sodipodi-0.dtd"
   xmlns:inkscape="http://www.inkscape.org/namespaces/inkscape"
   id="mail"
   class="custom-icon"
   version="1.1"
   viewBox="0 0 100 100"
   style="height:100px;width:100px;"
   inkscape:version="0.91 r13725"
   sodipodi:docname="mail.svg">
  <metadata
     id="metadata11">
    <rdf:RDF>
      <cc:Work
         rdf:about="">
        <dc:format>image/svg+xml</dc:format>
        <dc:type
           rdf:resource="http://purl.org/dc/dcmitype/StillImage" />
        <dc:title></dc:title>
      </cc:Work>
    </rdf:RDF>
  </metadata>
  <defs
     id="defs9" />
  <sodipodi:namedview
     pagecolor="#ffffff"
     bordercolor="#666666"
     borderopacity="1"
     objecttolerance="10"
     gridtolerance="10"
     guidetolerance="10"
     inkscape:pageopacity="0"
     inkscape:pageshadow="2"
     inkscape:window-width="686"
     inkscape:window-height="480"
     id="namedview7"
     showgrid="false"
     inkscape:zoom="2.36"
     inkscape:cx="50"
     inkscape:cy="50"
     inkscape:window-x="959"
     inkscape:window-y="136"
     inkscape:window-maximized="0"
     inkscape:current-layer="mail" />
  <circle
     style="opacity:1;fill:#000000;fill-opacity:1"
     class="outer-shape"
     cx="50"
     cy="50"
     r="48"
     id="circle3" />
  <path
     class="inner-shape"
     style="opacity:1;fill:#f7f7f7;"
     transform="translate(25,25) scale(0.5)"
     d="M50,1C22.938,1,1,22.938,1,50s21.938,49,49,49s49-21.938,49-49S77.062,1,50,1z M25.5,25.5h49 c0.874,0,1.723,0.188,2.502,0.542L50,57.544L22.998,26.041C23.777,25.687,24.626,25.499,25.5,25.5L25.5,25.5z M19.375,68.375v-36.75 c0-0.128,0.005-0.256,0.014-0.383l17.96,20.953L19.587,69.958C19.448,69.447,19.376,68.916,19.375,68.375L19.375,68.375z M74.5,74.5 h-49c-0.541,0-1.072-0.073-1.583-0.212l17.429-17.429L50,66.956l8.653-10.096l17.429,17.429C75.572,74.427,75.041,74.5,74.5,74.5 L74.5,74.5z M80.625,68.375c0,0.541-0.073,1.072-0.211,1.583L62.652,52.195l17.96-20.953c0.008,0.127,0.014,0.255,0.014,0.383 L80.625,68.375L80.625,68.375z"
     id="path5" />
</svg>
