<?xml version="1.0" encoding="UTF-8" standalone="no"?>
<!-- Generate more at customizr.net -->

<svg
   xmlns:dc="http://purl.org/dc/elements/1.1/"
   xmlns:cc="http://creativecommons.org/ns#"
   xmlns:rdf="http://www.w3.org/1999/02/22-rdf-syntax-ns#"
   xmlns:svg="http://www.w3.org/2000/svg"
   xmlns="http://www.w3.org/2000/svg"
   xmlns:sodipodi="http://sodipodi.sourceforge.net/DTD/sodipodi-0.dtd"
   xmlns:inkscape="http://www.inkscape.org/namespaces/inkscape"
   id="youtube"
   class="custom-icon"
   version="1.1"
   viewBox="0 0 100 100"
   style="height:100px;width:100px;"
   inkscape:version="0.91 r13725"
   sodipodi:docname="youtube.svg">
  <metadata
     id="metadata11">
    <rdf:RDF>
      <cc:Work
         rdf:about="">
        <dc:format>image/svg+xml</dc:format>
        <dc:type
           rdf:resource="http://purl.org/dc/dcmitype/StillImage" />
        <dc:title></dc:title>
      </cc:Work>
    </rdf:RDF>
  </metadata>
  <defs
     id="defs9" />
  <sodipodi:namedview
     pagecolor="#ffffff"
     bordercolor="#666666"
     borderopacity="1"
     objecttolerance="10"
     gridtolerance="10"
     guidetolerance="10"
     inkscape:pageopacity="0"
     inkscape:pageshadow="2"
     inkscape:window-width="686"
     inkscape:window-height="480"
     id="namedview7"
     showgrid="false"
     inkscape:zoom="2.36"
     inkscape:cx="50"
     inkscape:cy="50"
     inkscape:window-x="901"
     inkscape:window-y="193"
     inkscape:window-maximized="0"
     inkscape:current-layer="youtube" />
  <circle
     style="opacity:1;fill:#000000;fill-opacity:1"
     class="outer-shape"
     cx="50"
     cy="50"
     r="48"
     id="circle3" />
  <path
     class="inner-shape"
     style="opacity:1;fill:#f7f7f7;"
     transform="translate(25,25) scale(0.5)"
     d="M97.284,26.359c-1-5.352-5.456-9.346-10.574-9.839c-12.221-0.784-24.488-1.42-36.731-1.428 c-12.244-0.007-24.464,0.616-36.687,1.388c-5.137,0.497-9.592,4.47-10.589,9.842C1.567,34.058,1,41.869,1,49.678 s0.568,15.619,1.703,23.355c0.996,5.372,5.451,9.822,10.589,10.314c12.226,0.773,24.439,1.561,36.687,1.561 c12.239,0,24.515-0.688,36.731-1.479c5.118-0.497,9.574-5.079,10.574-10.428C98.43,65.278,99,57.477,99,49.676 C99,41.88,98.428,34.083,97.284,26.359z M38.89,63.747V35.272l26.52,14.238L38.89,63.747z"
     id="path5" />
</svg>
