<svg xmlns="http://www.w3.org/2000/svg" class="custom-icon" viewBox="0 0 100 100" style="height:100px;width:100px"><circle class="outer-shape" cx="50" cy="50" r="48"/><path class="inner-shape" d="M73.642 38.18c-.5-2.676-2.728-4.673-5.287-4.92-6.11-.392-12.244-.71-18.366-.714-6.123-.003-12.233.308-18.344.694-2.57.25-4.796 2.235-5.295 4.92a80.402 80.402 0 0 0 0 23.357c.5 2.686 2.727 4.91 5.296 5.157 6.113.386 12.22.78 18.343.78 6.12 0 12.257-.344 18.365-.74 2.56-.248 4.787-2.54 5.287-5.213a79.59 79.59 0 0 0 0-23.32zM44.445 56.874V42.636l13.26 7.12-13.26 7.118z" fill="#f7f7f7"/></svg>